<svg width="256px" height="260px" viewBox="0 0 256 259.3" xmlns="http://www.w3.org/2000/svg">
  <!-- Fire Background -->
  <defs>
    <radialGradient id="fire" cx="50%" cy="50%" r="50%">
      <stop offset="0%" stop-color="#ffcc00"/>
      <stop offset="50%" stop-color="#ff3300"/>
      <stop offset="100%" stop-color="#990000"/>
    </radialGradient>
  </defs>
  <circle cx="128" cy="130" r="120" fill="url(#fire)" opacity="0.4"/>

  <!-- Octocat -->
  <g>
    <path fill="#010101" d="M255.8,95.6c-21.1-4.2-42.7-4.3-55.8-3.7c2.1-7.7,2.8-16.7,2.8-26.6c0-14.3-5.4-25.7-14-34.3
      c1.5-4.9,3.5-15.8-2-29.7c0,0-9.8-3.1-32.1,11.8c-8.7-2.2-18-3.3-27.3-3.3c-10.2,0-20.5,1.3-30.2,3.9C74.4-2.9,64.3,0.3,64.3,0.3
      c-6.6,16.5-2.5,28.8-1.3,31.8c-7.8,8.4-12.5,19.1-12.5,32.2c0,9.9,1.1,18.8,3.9,26.5c-13.2-0.5-34-0.3-54.4,3.8
      c21.4-6,43.7-7.6,56.6-8c7.8,14.4,23,23.8,50.2,26.7c-3.9,2.6-7.8,7-9.4,14.5c-5.3,2.5-21.9,8.7-31.9-8.5c0,0-5.6-10.2-16.3-11
      c0,0-10.4-0.2-0.7,6.5c0,0,6.9,3.3,11.7,15.6c0,0,6.3,21,36.4,14.2V177c0,0-0.6,7.7-7.7,10.2c0,0-4.2,2.9,0.3,4.5
      c0,0,19.5,1.6,19.5-14.4v-23.6c0,0-0.8-9.4,3.8-12.6v38.8c0,0-0.3,9.3-5.1,12.8c0,0-3.2,5.7,3.8,4.2c0,0,13.4-1.9,14-17.6l0.3-39.3
      h3.2l0.3,39.3c0.6,15.6,14,17.6,14,17.6c7,1.6,3.8-4.2,3.8-4.2c-4.8-3.5-5.1-12.8-5.1-12.8v-38.5c4.6,3.6,3.8,12.3,3.8,12.3v23.6
      c0,16,19.5,14.4,19.5,14.4c4.5-1.6,0.3-4.5,0.3-4.5c-7-2.6-7.7-10.2-7.7-10.2v-31c0-12.1-5.1-18.5-10.1-21.8
      c29-2.9,42.9-12.2,49.3-26.8c12.7,0.3,35.6,1.9,57.4,8.1C290.2,97.7,277.5,95.9,255.8,95.6z"/>
  </g>

  <!-- Googly Eyes -->
  <circle cx="96" cy="85" r="10" fill="#fff"/>
  <circle cx="160" cy="85" r="10" fill="#fff"/>
  <circle cx="98" cy="87" r="4" fill="#000"/>
  <circle cx="158" cy="87" r="4" fill="#000"/>
</svg>
